# xmcd
#
# Track frame offsets: 
#        150
#        19230
#        38355
#        57712
#        78757
#        99967
#        121065
#        141342
#        165335
#
# Disc length: 2582 seconds
#
# Revision: 3
# Processed by: cddbd v1.5.2PL0 Copyright (c) Steve Scherf et al.
# Submitted via: ExactAudioCopy v1.1
#
DISCID=640a1409
DTITLE=Donna Summer - All Systems Go
DYEAR=1987
DGENRE=Disco
TTITLE0=All Systems Go
TTITLE1=Bad Reputation
TTITLE2=Love Shock
TTITLE3=Jeremy
TTITLE4=Only The Fool Survives
TTITLE5=Dinner With Gershwin
TTITLE6=Fascination
TTITLE7=Voices Cryin' Out
TTITLE8=Thinkin' Bout My Baby
EXTD=
EXTT0=
EXTT1=
EXTT2=
EXTT3=
EXTT4=
EXTT5=
EXTT6=
EXTT7=
EXTT8=
PLAYORDER=
